<svg xmlns="http://www.w3.org/2000/svg" viewBox="0 0 304 182">
  <path fill="#FF9900" d="M86.4 66.4c0 3.7.4 6.7 1.1 8.9.8 2.2 1.8 4.6 3.2 7.2.5.8.7 1.6.7 2.3 0 1-.6 2-1.9 3l-6.3 4.2c-.9.6-1.8.9-2.6.9-1 0-2-.5-3-1.4-1.4-1.5-2.6-3.1-3.6-4.7-1-1.7-2-3.6-3.1-5.9-7.8 9.2-17.6 13.8-29.4 13.8-8.4 0-15.1-2.4-20-7.2-4.9-4.8-7.4-11.2-7.4-19.2 0-8.5 3-15.4 9.1-20.6 6.1-5.2 14.2-7.8 24.5-7.8 3.4 0 6.9.3 10.6.8 3.7.5 7.5 1.3 11.5 2.2v-7.3c0-7.6-1.6-12.9-4.7-16-3.2-3.1-8.6-4.6-16.3-4.6-3.5 0-7.1.4-10.8 1.3-3.7.9-7.3 2-10.8 3.4-1.6.7-2.8 1.1-3.5 1.3-.7.2-1.2.3-1.6.3-1.4 0-2.1-1-2.1-3.1v-4.9c0-1.6.2-2.8.7-3.5.5-.7 1.4-1.4 2.8-2.1 3.5-1.8 7.7-3.3 12.6-4.5 4.9-1.3 10.1-1.9 15.6-1.9 11.9 0 20.6 2.7 26.2 8.1 5.5 5.4 8.3 13.6 8.3 24.6v32.4zm-40.6 15.2c3.3 0 6.7-.6 10.3-1.8 3.6-1.2 6.8-3.4 9.5-6.4 1.6-1.9 2.8-4 3.4-6.4.6-2.4 1-5.3 1-8.7v-4.2c-2.9-.7-6-1.3-9.2-1.7-3.2-.4-6.3-.6-9.4-.6-6.7 0-11.6 1.3-14.9 4-3.3 2.7-4.9 6.5-4.9 11.5 0 4.7 1.2 8.2 3.7 10.6 2.4 2.5 5.9 3.7 10.5 3.7zm80.3 10.8c-1.8 0-3-.3-3.8-1-.8-.6-1.5-2-2.1-3.9L100.3 10c-.6-2-.9-3.3-.9-4 0-1.6.8-2.5 2.4-2.5h9.8c1.9 0 3.2.3 3.9 1 .8.6 1.4 2 2 3.9l16.8 66.2 15.6-66.2c.5-2 1.1-3.3 1.9-3.9.8-.6 2.2-1 4-1h8c1.9 0 3.2.3 4 1 .8.6 1.5 2 1.9 3.9l15.8 67 17.3-67c.6-2 1.3-3.3 2-3.9.8-.6 2.1-1 3.9-1h9.3c1.6 0 2.5.8 2.5 2.5 0 .5-.1 1-.2 1.6-.1.6-.3 1.4-.7 2.5l-24.1 77.5c-.6 2-1.3 3.3-2.1 3.9-.8.6-2.1 1-3.8 1h-8.6c-1.9 0-3.2-.3-4-1-.8-.7-1.5-2-1.9-4L156 23.1l-15.4 64.4c-.5 2-1.1 3.3-1.9 4-.8.7-2.2 1-4 1h-8.6zm128.5 2.7c-5.2 0-10.4-.6-15.4-1.8-5-1.2-8.9-2.5-11.5-4-1.6-.9-2.7-1.9-3.1-2.8-.4-.9-.6-1.9-.6-2.8v-5.1c0-2.1.8-3.1 2.3-3.1.6 0 1.2.1 1.8.3.6.2 1.5.6 2.5 1 3.4 1.5 7.1 2.7 11 3.5 4 .8 7.9 1.2 11.9 1.2 6.3 0 11.2-1.1 14.6-3.3 3.4-2.2 5.2-5.4 5.2-9.5 0-2.8-.9-5.1-2.7-7-1.8-1.9-5.2-3.6-10.1-5.2l-14.5-4.5c-7.3-2.3-12.7-5.7-16-10.2-3.3-4.4-5-9.3-5-14.5 0-4.2.9-7.9 2.7-11.1 1.8-3.2 4.2-6 7.2-8.2 3-2.3 6.4-4 10.4-5.2 4-1.2 8.2-1.7 12.6-1.7 2.2 0 4.5.1 6.7.4 2.3.3 4.4.7 6.5 1.1 2 .5 3.9 1 5.7 1.6 1.8.6 3.2 1.2 4.2 1.8 1.4.8 2.4 1.6 3 2.5.6.8.9 1.9.9 3.3v4.7c0 2.1-.8 3.2-2.3 3.2-.8 0-2.1-.4-3.8-1.2-5.7-2.6-12.1-3.9-19.2-3.9-5.7 0-10.2 1-13.4 2.9-3.2 1.9-4.8 4.8-4.8 8.7 0 2.8 1 5.2 3 7.1 2 1.9 5.7 3.8 11 5.5l14.2 4.5c7.2 2.3 12.4 5.5 15.5 9.6 3.1 4.1 4.6 8.8 4.6 14 0 4.3-.9 8.2-2.6 11.6-1.8 3.4-4.2 6.4-7.3 8.8-3.1 2.5-6.8 4.3-11.1 5.6-4.5 1.4-9.2 2.1-14.3 2.1z"/>
  <path fill="#FF9900" d="M273.5 142.4c-32.4 23.9-79.5 36.6-120 36.6-56.8 0-108-21-146.6-55.9-3-2.7-.3-6.4 3.3-4.3 41.7 24.3 93.3 38.9 146.6 38.9 36 0 75.5-7.4 111.9-22.9 5.5-2.3 10.1 3.6 4.8 7.6z"/>
  <path fill="#FF9900" d="M287.2 126.8c-4.2-5.3-27.4-2.5-37.9-1.3-3.2.4-3.7-2.4-.8-4.4 18.5-13 48.9-9.3 52.5-4.9 3.6 4.4-1 34.9-18.3 49.4-2.7 2.3-5.2 1.1-4-1.9 3.9-9.7 12.7-31.6 8.5-36.9z"/>
</svg>
