<svg xmlns="http://www.w3.org/2000/svg" viewBox="0 0 256 289">
  <path fill="#539E43" d="M128 288.464c-3.975 0-7.685-1.06-11.13-2.915l-35.247-20.936c-5.3-2.915-2.65-3.975-0.796-4.505 7.155-2.385 8.48-2.915 15.9-7.155.796-.53 1.856-.265 2.65.265l27.032 16.166c1.06.53 2.385.53 3.18 0l105.739-61.108c1.06-.53 1.59-1.59 1.59-2.915V83.398c0-1.325-.53-2.385-1.59-2.915L128.795 19.64c-1.06-.53-2.385-.53-3.18 0L19.875 80.748c-1.06.53-1.59 1.855-1.59 2.915v122.217c0 1.06.53 2.385 1.59 2.915l28.887 16.696c15.635 7.95 25.382-1.325 25.382-10.335V93.733c0-1.59 1.325-2.915 2.915-2.915h12.455c1.59 0 2.915 1.325 2.915 2.915V215.26c0 20.141-10.865 31.537-29.947 31.537-5.832 0-10.4 0-23.12-6.36l-27.827-15.9C4.24 220.029 0 212.609 0 204.659V82.443c0-7.95 4.24-15.37 11.13-19.345L116.87 2.255c6.625-3.71 15.37-3.71 21.995 0L244.605 63.1c6.89 3.975 11.13 11.395 11.13 19.345v122.217c0 7.95-4.24 15.37-11.13 19.345l-105.74 61.108c-3.445 1.59-7.155 2.385-11.13 2.385l.265-.036z"/>
  <path fill="#539E43" d="M160.297 204.394c-46.323 0-55.998-21.2-55.998-39.087 0-1.59 1.325-2.915 2.915-2.915h12.72c1.325 0 2.65 1.06 2.915 2.385 1.856 13.25 7.685 19.61 37.713 19.61 23.12 0 33.027-5.3 33.027-17.755 0-7.155-2.915-12.455-38.773-15.9-30.028-2.915-48.708-9.54-48.708-33.457 0-22.26 18.68-35.51 50.033-35.51 35.247 0 52.683 12.19 54.803 38.508.265.795 0 1.59-.53 2.12-.53.53-1.325.795-2.12.795h-12.72c-1.325 0-2.385-.795-2.65-2.12-3.445-15.105-11.66-19.875-36.783-19.875-27.032 0-30.212 9.54-30.212 16.695 0 8.48 3.71 10.865 37.713 15.635 33.722 4.77 49.768 11.395 49.768 33.722-.265 24.182-20.14 37.182-53.918 37.182l-.265-.034z"/>
</svg>
