<svg xmlns="http://www.w3.org/2000/svg" viewBox="0 0 256 264">
  <path fill="#336791" d="M255.8 158.6c-1.8-9.7-7.3-17.5-16.3-23.2-3.4-2.1-7.1-3.8-10.9-5.1 1-3.2 1.8-6.5 2.4-10 2.9-16.6 1-30.2-1.1-38.9C223 51.7 203.5 24.7 174.3 9.1 163.2 3.1 150.6 0 137.7 0c-8.9 0-17.5 1.5-25.7 4.3C105 1.5 97.9 0 90.6 0 67.2 0 45.6 12.1 31.5 32.8 16.1 55.2 10.8 84.5 16.2 115c.8 4.7 2 9.3 3.5 13.6-3.4 1.5-6.6 3.3-9.5 5.4C2.5 141 .2 152 .1 157.8c-.2 8.6 2.5 17.4 7.9 25.4 7.2 10.7 18.1 18.6 30.9 22.3 7.4 2.1 14.5 2.5 21 1.2 2.2 5.2 4.7 9.9 7.4 14.2 10.3 16 25.2 25.2 42 26.1l4.4.1 4.2-.4c8.2-.8 16-4.2 23.2-9.6 4.2 1.3 8.6 2 13.1 2 10.3 0 20-3.5 27.7-9.8 9.1-7.3 15.6-18.6 18.7-32.2 5-.7 9.7-2 14.1-3.9 16.1-6.9 27.2-20.2 28.9-34.1.4-2.8.3-5.7-.1-8.5zm-22.7 30.3c-2.9 8-11.1 15.5-22.5 20.4-4.8 2-10 3.4-15.7 4.1l-4.6.5-1 4.5c-2.4 11.3-7.6 20.5-14.8 26.2-5.7 4.6-12.4 7-19.5 7-3.5 0-7-.6-10.4-1.8l-5.6-1.9-4.5 3.7c-5.7 4.7-12.1 7.7-18.6 8.4l-3.3.3-3.3-.1c-12.3-.6-24-8-32.3-20.4-2.7-4.1-5-8.8-6.9-14.1l-2.4-6.7-7.1.7c-5.5.6-11.4.1-17.6-1.7-10-2.9-18.6-9.1-23.8-17.1-3.8-5.7-5.7-12-5.6-17.8.1-3.3 1.2-9.4 6.1-13.3 2.7-2.1 5.8-3.8 9.2-5.2l9.3-3.8-5.4-8.2c-2.2-3.4-3.9-7.4-5.2-12-5.5-28.5.2-56.1 14.5-76.6 11-16.2 27.5-26.5 45.9-28.8 1.1 1.1 2.2 2.3 3.2 3.6 3.7 4.8 6.4 10.7 8.1 17.6l1.8 7.2 6.8-2.8c8.1-3.3 16.3-4.9 24.5-4.9 8.6 0 17.3 1.8 25.9 5.5l8.1 3.4 1.9-8.6c1.6-7.4 4.6-13.7 8.7-18.6 1.2-1.4 2.5-2.7 3.9-3.9 18.9.7 36.6 9.9 49 25.8 13.4 17.3 19.9 42.2 17.1 67-1 9.1-3.5 17.9-7.4 26l-6.3 13.1 13.8 2.4c4.5.8 8.6 2.3 12.2 4.5 7.6 4.8 11.1 10.7 12.2 16.5.3 1.8.4 3.5.2 5.2z"/>
  <path fill="#336791" d="M163.7 115c-1.3-1.6-3.6-2.3-7.3-2.3-1.1 0-2.3.1-3.6.2-6 .7-9.1 2.5-9.8 3.4.1 1.6 1.5 3.3 4 4.9 2.1 1.4 4.5 2.3 6.1 2.3.5 0 .9-.1 1.2-.2 4.1-1.1 6.5-2.7 8.5-4.1 1.4-1 2.3-2 2.5-2.7-.4-.4-.8-.8-1.6-1.5z"/>
  <path fill="#336791" d="M97.6 113.9c-3.7-.5-7 .1-8.6 1.7-.9.9-1.3 1.5-1.4 1.9.2.7 1.2 1.8 2.7 2.9 2.1 1.5 4.6 2.9 8.6 3.9.3.1.7.1 1.2.1 1.6 0 4-1 6.2-2.5 2.6-1.8 4.1-3.7 4-5.4-.8-.8-4.1-2.1-9.3-2.6h-3.4z"/>
  <path fill="#fff" d="M195.4 82.7c.3 3.5.3 7.1.1 10.8l-.3 5.2c-.1 2.1-.3 4.2-.7 6.2-1.1 6.3-3 12.3-5.6 17.9-2.8 5.8-6.3 11.3-10.5 16.1-4.3 5-9.3 9.5-14.8 13.3-5.6 3.9-11.7 7.1-18.1 9.6-3.1 1.2-6.3 2.3-9.5 3.2.6 5.2 1.1 10.6 1.3 16.1.3 7.1 0 13.5-.7 18.8-.4 2.7-.9 5-1.5 6.7-.6 1.7-1.2 2.7-1.7 2.9l-.6.1h-.5c-.4-.2-.9-1.1-1.5-2.8-.5-1.7-1-3.9-1.4-6.6-.5-3.5-.8-7.5-.9-11.9 0-1.4 0-2.8.1-4.3-4.4.8-8.9 1.4-13.4 1.7-1.3.1-2.7.1-4 .1-4.2 0-8.3-.3-12.2-.8v.3l.1 4.3c.1 4.4.3 8.6.9 12.3.4 2.7.9 5 1.4 6.6.6 1.7 1.1 2.6 1.5 2.8h-.5l-.6-.1c-.5-.2-1.1-1.2-1.7-2.9-.6-1.7-1.1-4-1.5-6.7-.7-5.3-1-11.7-.7-18.8.2-5.5.7-10.9 1.3-16.1-3.3-.9-6.5-2-9.5-3.2-6.4-2.5-12.5-5.7-18.1-9.6-5.5-3.8-10.5-8.3-14.8-13.3-4.2-4.8-7.7-10.3-10.5-16.1-2.6-5.6-4.5-11.6-5.6-17.9-.4-2-.6-4.1-.7-6.2l-.3-5.2c-.2-3.7-.2-7.3.1-10.8.8-12.2 3.7-23.5 8.4-33.1 2.9-5.9 6.4-11.4 10.4-16.5 3.9-4.9 8.3-9.3 13.2-13.2 4.8-3.8 10-7 15.5-9.6 5.3-2.5 10.9-4.3 16.6-5.4-1.2 1.9-2.3 3.9-3.3 5.9-2.2 4.4-3.8 9.1-4.8 13.9-2.2 1.3-4.3 2.7-6.2 4.3-4.5 3.7-8.1 8.3-10.7 13.5-2.7 5.5-4.1 11.8-4.1 18.2 0 5.6 1.1 11.1 3.2 16.2 1.5 3.6 3.5 7 5.9 10.1l3.7 4.8 4.9-3.6c3.1-2.3 8.1-4.7 15.2-5.5l1.5-.2 1.5-.1 3 .1c3.4.3 7.2 1.3 11 3.4l6.9 3.8 2.2-7.5c.5-1.5.8-3 1.1-4.6.3-1.5.5-3.1.5-4.7 0-1.8-.2-3.6-.5-5.3-.5-2.6-1.5-5-2.8-7.2-.6-1.1-1.4-2.1-2.3-3.1 2.4.2 4.8.5 7.1.9 1.4.2 2.7.6 4.1.9 1.3.4 2.6.7 3.8 1.2 2.4.8 4.8 1.8 7 2.9l.4.2.4.2c2.3 1.2 4.5 2.7 6.4 4.3-1-.1-2.1-.1-3.1 0-1.8.2-3.5.6-5.2 1.3-3.1 1.3-5.8 3.5-7.9 6.3-1.6 2.1-2.7 4.4-3.4 6.8-.3 1.2-.5 2.5-.5 3.7l-.1 3.1.9 2.9c.6 2 1.5 3.8 2.6 5.5 1.8 2.7 4.1 5.1 7.1 6.9l6.8 4 2.1-7.3c.4-1.5.9-3 1.4-4.4.7-1.9 1.5-3.8 2.3-5.4.9-1.7 1.8-3.2 2.8-4.4 1.4-1.7 2.6-2.7 3.4-3.1 5.6 3.3 10.4 7.7 14.4 13 4.1 5.4 7.1 11.6 8.9 18.1 1 3.4 1.6 7 1.9 10.6z"/>
  <path fill="#336791" d="M136.5 101.5c.1 6 1.2 11 2.7 14.7.3.9.7 1.7 1 2.4.3-.8.7-1.6 1-2.4 1.5-3.7 2.6-8.7 2.7-14.7-1.2-.6-2.5-.9-3.7-.9s-2.5.3-3.7.9z"/>
</svg>
