<svg xmlns="http://www.w3.org/2000/svg" viewBox="0 0 400 400">
  <rect width="400" height="400" rx="50" fill="#3178C6"/>
  <path fill="#fff" d="M87.7 200.7V217h52v148h36.9V217h52v-16c0-9 0-16.3-.4-16.5-.3-.3-31.7-.4-70-.4l-69.7.3v16.3zM321.4 184c10.2 2.4 18 7 25 14.3 3.7 3.9 9.2 11 9.6 12.8.1.5-17.3 12.3-27.8 18.9-.4.3-2-1.4-3.6-3.7-5.2-7.4-10.5-10.6-18.8-11.2-12.1-.8-20 5.5-20 16 0 3.2.5 5 1.8 7.6 2.7 5.5 7.7 8.8 23.2 15.6 28.6 12.3 40.9 20.4 48.5 32 8.5 13 10.4 33.4 4.7 48.7-6.4 16.7-22.2 28-44.4 31.6-6.8 1.2-23 1-30.5-.3-16.1-2.7-31.4-10.6-40.8-21.1-3.7-4.2-10.9-15.4-10.5-16.2.2-.2 1.9-1.3 3.8-2.4l15.5-9 11.3-6.6 2.6 3.5c3.3 5.2 10.7 12.2 15.2 14.6 13 6.7 30.8 5.8 39.5-2 3.7-3.4 5.3-6.9 5.3-12 0-4.6-.7-6.7-3-10.2-3.2-4.4-9.6-8-27.6-16-20.7-8.9-29.5-14.4-37.7-23.2-4.7-5.1-9.1-13.3-11-20.3-1.5-5.8-1.9-20.2-.6-25.9 4.8-22.7 21.8-38.6 45.5-43.2 7.8-1.5 25.9-1 33.3.8z"/>
</svg>
